<?xml version="1.0" encoding="utf-8"?>
<svg version="1.1" xmlns:xlink="http://www.w3.org/1999/xlink" width="300px" height="170px" xmlns="http://www.w3.org/2000/svg">
  <defs>
    <mask fill="white" id="clip30">
      <path d="M 0 170  L 0 0  L 291.799999999999 0  L 300 0  L 300 54.7999999999993  L 300 170  L 0 170  Z " fill-rule="evenodd" />
    </mask>
  </defs>
  <g transform="matrix(1 0 0 1 -76 -150 )">
    <path d="M 0 170  L 0 0  L 291.799999999999 0  L 300 0  L 300 54.7999999999993  L 300 170  L 0 170  Z " fill-rule="nonzero" fill="#ffffff" stroke="none" transform="matrix(1 0 0 1 76 150 )" />
    <path d="M 0 170  L 0 0  L 291.799999999999 0  L 300 0  L 300 54.7999999999993  L 300 170  L 0 170  Z " stroke-width="2" stroke="#797979" fill="none" transform="matrix(1 0 0 1 76 150 )" mask="url(#clip30)" />
  </g>
</svg>