<?xml version="1.0" encoding="utf-8"?>
<svg version="1.1" xmlns:xlink="http://www.w3.org/1999/xlink" width="120px" height="20px" xmlns="http://www.w3.org/2000/svg">
  <defs>
    <mask fill="white" id="clip33">
      <path d="M 0 15  L 0 5  C 0 2.19999999999999  2.20000000000005 0  5 0  L 115 0  C 117.8 0  120 2.19999999999999  120 5  L 120 15  C 120 17.8  117.8 20  115 20  L 5 20  C 2.20000000000005 20  0 17.8  0 15  Z " fill-rule="evenodd" />
    </mask>
  </defs>
  <g transform="matrix(1 0 0 1 -591 -275 )">
    <path d="M 0 15  L 0 5  C 0 2.19999999999999  2.20000000000005 0  5 0  L 115 0  C 117.8 0  120 2.19999999999999  120 5  L 120 15  C 120 17.8  117.8 20  115 20  L 5 20  C 2.20000000000005 20  0 17.8  0 15  Z " fill-rule="nonzero" fill="#ffffff" stroke="none" transform="matrix(1 0 0 1 591 275 )" />
    <path d="M 0 15  L 0 5  C 0 2.19999999999999  2.20000000000005 0  5 0  L 115 0  C 117.8 0  120 2.19999999999999  120 5  L 120 15  C 120 17.8  117.8 20  115 20  L 5 20  C 2.20000000000005 20  0 17.8  0 15  Z " stroke-width="2" stroke="#797979" fill="none" transform="matrix(1 0 0 1 591 275 )" mask="url(#clip33)" />
  </g>
</svg>