<?xml version="1.0" encoding="utf-8"?>
<svg version="1.1" xmlns:xlink="http://www.w3.org/1999/xlink" width="30px" height="21px" xmlns="http://www.w3.org/2000/svg">
  <g transform="matrix(1 0 0 1 -874 -140 )">
    <path d="M 29.2929292929293 15.6969696969697  C 29.7643097643098 16.026936026936  30 16.4276094276094  30 16.8989898989899  C 30 17.3703703703704  29.7643097643098 17.7710437710438  29.2929292929293 18.1010101010101  L 25.8585858585859 20.5050505050505  C 25.3872053872054 20.8350168350168  24.8148148148148 21  24.1414141414141 21  C 23.4680134680135 21  22.8956228956229 20.8350168350168  22.4242424242424 20.5050505050505  L 15 15.3080808080808  L 7.57575757575758 20.5050505050505  C 7.10437710437711 20.8350168350168  6.53198653198653 21  5.85858585858586 21  C 5.18518518518519 21  4.61279461279461 20.8350168350168  4.14141414141414 20.5050505050505  L 0.707070707070707 18.1010101010101  C 0.235690235690236 17.7710437710438  0 17.3703703703704  0 16.8989898989899  C 0 16.4276094276094  0.235690235690236 16.026936026936  0.707070707070707 15.6969696969697  L 8.13131313131313 10.5  L 0.707070707070707 5.3030303030303  C 0.235690235690236 4.97306397306397  0 4.57239057239057  0 4.1010101010101  C 0 3.62962962962963  0.235690235690236 3.22895622895623  0.707070707070707 2.8989898989899  L 4.14141414141414 0.494949494949495  C 4.61279461279461 0.164983164983164  5.18518518518519 0  5.85858585858586 0  C 6.53198653198653 0  7.10437710437711 0.164983164983164  7.57575757575758 0.494949494949495  L 15 5.69191919191919  L 22.4242424242424 0.494949494949495  C 22.8956228956229 0.164983164983164  23.4680134680135 0  24.1414141414141 0  C 24.8148148148148 0  25.3872053872054 0.164983164983164  25.8585858585859 0.494949494949495  L 29.2929292929293 2.8989898989899  C 29.7643097643098 3.22895622895623  30 3.62962962962963  30 4.1010101010101  C 30 4.57239057239057  29.7643097643098 4.97306397306397  29.2929292929293 5.3030303030303  L 21.8686868686869 10.5  L 29.2929292929293 15.6969696969697  Z " fill-rule="nonzero" fill="#000000" stroke="none" transform="matrix(1 0 0 1 874 140 )" />
  </g>
</svg>