<?xml version="1.0" encoding="utf-8"?>
<svg version="1.1" xmlns:xlink="http://www.w3.org/1999/xlink" width="978px" height="600px" xmlns="http://www.w3.org/2000/svg">
  <defs>
    <mask fill="white" id="clip31">
      <path d="M 0 600  L 0 0  L 451.200000000001 0  L 477.599999999999 0  L 978 0  L 978 600  L 0 600  Z " fill-rule="evenodd" />
    </mask>
  </defs>
  <g transform="matrix(1 0 0 1 -17 -61 )">
    <path d="M 0 600  L 0 0  L 451.200000000001 0  L 477.599999999999 0  L 978 0  L 978 600  L 0 600  Z " fill-rule="nonzero" fill="#ffffff" stroke="none" transform="matrix(1 0 0 1 17 61 )" />
    <path d="M 0 600  L 0 0  L 451.200000000001 0  L 477.599999999999 0  L 978 0  L 978 600  L 0 600  Z " stroke-width="2" stroke="#797979" fill="none" transform="matrix(1 0 0 1 17 61 )" mask="url(#clip31)" />
  </g>
</svg>